<?xml version="1.0" encoding="utf-8"?>
<!-- Generator: Adobe Illustrator 21.0.0, SVG Export Plug-In . SVG Version: 6.00 Build 0)  -->
<svg version="1.1" id="Camada_1" xmlns="http://www.w3.org/2000/svg" xmlns:xlink="http://www.w3.org/1999/xlink" x="0px" y="0px"
	 viewBox="0 0 51 8.3" style="enable-background:new 0 0 51 8.3;" xml:space="preserve">
<style type="text/css">
	.st0{fill:#00A598;}
	.st1{fill:#4E4E4E;}
	.st2{fill:#4C4C4C;}
</style>
<g id="Camada_x0020_1">
	<path class="st0" d="M21.7,1.2c0.1-0.6,0.8-1.2,1.3-1c0.7,0.1,1.1,0.8,0.9,1.6c-0.1,0.7-0.8,1.2-1.4,1.1C22,2.7,21.6,2,21.7,1.2z
		 M20,0.2L20,0.2c0.5-0.1,1.2,0.4,1.3,1.1C21.4,2,21,2.7,20.5,2.8c-0.7,0.1-1.3-0.4-1.4-1.1C18.9,0.9,19.3,0.3,20,0.2z M17.1,3.8
		L17.1,3.8c-0.3-0.7,0-1.4,0.5-1.7c0.7-0.3,1.3,0.1,1.6,0.8s0.1,1.4-0.5,1.7C18.1,4.8,17.5,4.5,17.1,3.8z M23.4,8.3L23.4,8.3
		c-0.7,0-1.6-0.5-1.8-0.5c-0.4,0-1.3,0.5-2,0.5c-0.9,0-1.6-0.8-1.6-1.6c0-0.7,0.5-1.3,1.2-1.4c0.3-0.1,0.7-0.5,0.8-1.1
		c0.4-0.8,1.1-0.9,1.6-0.9c0.4,0,1.1,0.1,1.4,0.9c0.1,0.5,0.5,0.9,0.8,1.1C24.5,5.4,25,6.1,25,6.7C25,7.5,24.3,8.3,23.4,8.3z
		 M25.9,3.8L25.9,3.8c-0.4,0.7-1.1,0.9-1.6,0.8c-0.5-0.3-0.8-1.1-0.5-1.7s1.1-1.1,1.6-0.8S26.2,3.2,25.9,3.8z"/>
	<g id="_2648291114304">
		<path class="st1" d="M1.1,5v3.2H0v-8h2.6c0.7,0,1.3,0.1,1.7,0.7C4.7,1.2,5,1.9,5,2.5C5,3.3,4.7,4,4.3,4.4S3.4,5,2.6,5H1.1z
			 M1.1,4.1h1.6c0.3,0,0.7-0.1,1-0.4C3.8,3.4,4,3,4,2.5c0-0.4-0.1-0.8-0.4-1.1C3.4,1.1,3,0.9,2.6,0.9H1.1V4.1z"/>
		<polygon id="_x31_" class="st1" points="10.1,4.5 7.4,4.5 7.4,7.3 10.6,7.3 10.6,8.2 6.3,8.2 6.3,0.2 10.6,0.2 10.6,0.9 7.4,0.9 
			7.4,3.6 10.1,3.6 		"/>
		<polygon id="_x32_" class="st1" points="16.8,0.9 14.7,0.9 14.7,8.2 13.7,8.2 13.7,0.9 11.6,0.9 11.6,0.2 16.8,0.2 		"/>
	</g>
	<g id="_2648291114464">
		<polygon class="st2" points="28.1,7.4 31.3,7.4 31.3,8.2 27.1,8.2 27.1,0.2 28.1,0.2 		"/>
		<path id="_x31__1_" class="st2" d="M37.5,4.9c0,1.1-0.3,2-0.8,2.5c-0.4,0.7-1.1,0.9-2,0.9c-0.8,0-1.4-0.3-2-0.8
			c-0.5-0.7-0.8-1.4-0.8-2.5V3.4c0-1.1,0.3-1.8,0.8-2.5c0.4-0.7,1.1-0.9,2-0.9c0.8,0,1.4,0.3,2,0.9c0.5,0.5,0.8,1.4,0.8,2.5V4.9z
			 M36.4,3.4c0-0.8-0.1-1.4-0.4-1.8s-0.8-0.7-1.3-0.7s-1.1,0.3-1.3,0.7C33.1,2,33,2.7,33,3.4v1.4c0,0.8,0.1,1.4,0.4,1.8
			c0.3,0.5,0.8,0.7,1.3,0.7s1.1-0.1,1.3-0.5s0.4-1.1,0.4-1.8V3.4z"/>
		<path id="_x32__1_" class="st2" d="M44,7.3L44,7.3c-0.6,0.8-1.4,1-2.3,1S40.1,8,39.6,7.5C39,6.9,38.8,6.1,38.8,5V3.4
			c0-1.2,0.3-2,0.7-2.6C40,0.3,40.6,0,41.5,0c0.8,0,1.3,0.3,1.8,0.7s0.7,1,0.7,1.8h-1c0-0.5-0.1-0.9-0.4-1.2
			c-0.3-0.3-0.5-0.4-1.1-0.4c-0.7,0-1.1,0.1-1.3,0.5c-0.3,0.4-0.4,0.9-0.4,1.8v1.6c0,0.9,0.1,1.4,0.4,2c0.4,0.4,0.8,0.7,1.4,0.7
			c0.5,0,0.9-0.1,1.2-0.4L43,7V5h-1.4V4.2H44V7.3z"/>
		<path id="_x33_" class="st2" d="M51,4.9c0,1.1-0.3,2-0.8,2.5c-0.4,0.7-1.1,0.9-2,0.9c-0.8,0-1.4-0.3-2-0.8
			c-0.5-0.7-0.7-1.4-0.8-2.5V3.4c0-1.1,0.3-1.8,0.8-2.5c0.4-0.7,1.2-0.9,2-0.9c0.9,0,1.6,0.3,2,0.9C50.7,1.5,51,2.4,51,3.4V4.9z
			 M50,3.4c0-0.8-0.1-1.4-0.4-1.8c-0.3-0.4-0.8-0.7-1.3-0.7S47.4,1.2,47,1.6c-0.3,0.4-0.4,1.1-0.4,1.8v1.4c0,0.8,0.1,1.4,0.4,1.8
			c0.4,0.5,0.8,0.7,1.3,0.7s1.1-0.1,1.3-0.5C49.8,6.5,50,5.8,50,5V3.4z"/>
	</g>
</g>
</svg>
